<?xml version="1.0" encoding="iso-8859-1"?>
<!-- Generator: Adobe Illustrator 19.0.0, SVG Export Plug-In . SVG Version: 6.00 Build 0)  -->
<svg version="1.1" id="Capa_1" xmlns="http://www.w3.org/2000/svg" xmlns:xlink="http://www.w3.org/1999/xlink" x="0px" y="0px"
	 viewBox="0 0 512 512" style="enable-background:new 0 0 512 512;" xml:space="preserve">
<g>
	<g>
		<path d="M174.018,377.083c-0.101-0.028-0.203-0.049-0.305-0.074c9.36-10.451,15.065-24.24,15.065-39.34v-44.337
			c0-26.099-21.233-47.332-47.332-47.332H80.705c-5.522,0-10,4.477-10,10v81.669c0,15.1,5.706,28.889,15.065,39.34
			c-0.102,0.025-0.204,0.046-0.305,0.075c-43.213,3.981-77.17,40.419-77.17,84.653V502c0,5.522,4.478,10,10,10h222.895
			c5.522,0,10-4.478,10-10v-40.264C251.189,417.501,217.231,381.064,174.018,377.083z M129.742,376.706
			c-21.525,0-39.037-17.512-39.037-39.037v-17.883c5.443,2.974,11.681,4.667,18.309,4.667h59.765v13.216
			C168.78,359.194,151.267,376.706,129.742,376.706z M147.173,396.706l-17.432,17.432l-17.432-17.432H147.173z M90.704,266
			L90.704,266h50.743c15.071,0,27.332,12.261,27.332,27.332v11.121h-59.765c-10.096,0-18.31-8.214-18.31-18.31V266z M28.293,492
			v-30.264c0-32.906,24.573-60.164,56.33-64.431l38.046,38.046c1.953,1.952,4.512,2.929,7.071,2.929
			c2.559,0,5.118-0.977,7.071-2.929l38.047-38.047c31.756,4.267,56.33,31.525,56.33,64.431V492H28.293z"/>
	</g>
</g>
<g>
	<g>
		<path d="M454.364,384.493c7.691-7.627,12.463-18.193,12.463-29.854V313.98c0-23.074-11.566-43.488-29.194-55.782
			c0.16-0.712,0.245-1.448,0.245-2.198v-23.774c23.378-2.931,41.521-22.932,41.521-47.092V84.924
			c0-26.17-21.291-47.462-47.462-47.462H276.468c-26.171,0-47.462,21.292-47.462,47.462v100.21c0,26.17,21.291,47.462,47.462,47.462
			h113.863l13.615,13.615c-1.686-0.126-3.383-0.211-5.1-0.211c-37.485,0-67.981,30.496-67.981,67.98v40.658
			c0,11.662,4.772,22.227,12.463,29.854c-29.094,13.443-49.341,42.883-49.341,76.98V502c0,5.522,4.478,10,10,10h189.718
			c5.522,0,10-4.478,10-10v-40.526C503.705,427.376,483.457,397.936,454.364,384.493z M401.546,215.525
			c-1.876-1.875-4.419-2.929-7.071-2.929H276.468c-15.143,0-27.462-12.319-27.462-27.462V84.924
			c0-15.143,12.319-27.462,27.462-27.462h155.468c15.143,0,27.462,12.319,27.462,27.462v0.538h-63.438c-5.522,0-10,4.477-10,10
			c0,5.523,4.478,10,10,10h63.438v79.672c0,15.143-12.319,27.462-27.462,27.462h-4.059c-5.522,0-10,4.477-10,10v9.261
			L401.546,215.525z M350.866,313.98c0-26.456,21.524-47.98,47.981-47.98c26.456,0,47.98,21.524,47.98,47.98v40.658
			c0,12.168-9.899,22.067-22.067,22.067h-5.821h-40.184h-5.822v0.001c-12.168,0-22.067-9.899-22.067-22.067V313.98z M483.707,492
			h-0.001H313.988v-30.526c0-35.713,29.055-64.768,64.768-64.768h40.184c35.713,0,64.767,29.055,64.767,64.768V492z"/>
	</g>
</g>
<g>
	<g>
		<path d="M212.962,0H96.651C70.481,0,49.189,21.292,49.189,47.462v100.21c0,24.16,18.143,44.161,41.52,47.092v23.774
			c0,4.044,2.437,7.691,6.173,9.239c1.237,0.513,2.537,0.762,3.825,0.762c2.603,0,5.16-1.017,7.073-2.93l30.475-30.475h51.967
			c5.522,0,10-4.477,10-10c0-5.523-4.478-10-10-10h-56.109c-2.652,0-5.195,1.054-7.071,2.929l-16.332,16.332v-9.261
			c0-5.523-4.478-10-10-10h-4.059c-15.143,0-27.462-12.319-27.462-27.462V47.462C69.189,32.319,81.509,20,96.651,20h116.31
			c5.522,0,10-4.477,10-10S218.483,0,212.962,0z"/>
	</g>
</g>
<g>
	<g>
		<path d="M259.194,2.93c-1.869-1.86-4.44-2.93-7.069-2.93c-2.641,0-5.221,1.07-7.07,2.93c-1.87,1.86-2.94,4.44-2.94,7.07
			s1.07,5.21,2.94,7.07c1.849,1.86,4.429,2.93,7.07,2.93c2.63,0,5.2-1.07,7.069-2.93c1.86-1.86,2.931-4.44,2.931-7.07
			S261.054,4.79,259.194,2.93z"/>
	</g>
</g>
<g>
	<g>
		<path d="M361.273,88.39c-1.859-1.86-4.44-2.93-7.069-2.93c-2.63,0-5.21,1.07-7.07,2.93c-1.86,1.86-2.93,4.44-2.93,7.07
			c0,2.63,1.069,5.21,2.93,7.07c1.861,1.86,4.44,2.93,7.07,2.93s5.21-1.07,7.069-2.93c1.86-1.86,2.931-4.44,2.931-7.07
			C364.204,92.83,363.134,90.25,361.273,88.39z"/>
	</g>
</g>
<g>
</g>
<g>
</g>
<g>
</g>
<g>
</g>
<g>
</g>
<g>
</g>
<g>
</g>
<g>
</g>
<g>
</g>
<g>
</g>
<g>
</g>
<g>
</g>
<g>
</g>
<g>
</g>
<g>
</g>
</svg>
